<svg xmlns="http://www.w3.org/2000/svg" xmlns:xlink="http://www.w3.org/1999/xlink" width="1080" zoomAndPan="magnify" viewBox="0 0 810 1012.49997" height="1350" preserveAspectRatio="xMidYMid meet" version="1.0"><defs><clipPath id="0b91891bd1"><path d="M 219 329.457031 L 591.195312 329.457031 L 591.195312 682.53125 L 219 682.53125 Z M 219 329.457031 " clip-rule="nonzero"/></clipPath></defs><g clip-path="url(#0b91891bd1)"><path fill="#c9b3ff" d="M 220.417969 681.28125 C 218.625 679.488281 218.800781 679.113281 225.730469 669.769531 C 231.984375 661.335938 240.078125 649.105469 252.160156 629.820312 C 260.398438 616.671875 261.011719 615.796875 267.386719 608.074219 C 268.171875 607.121094 268.074219 607.144531 264.210938 608.808594 C 262.023438 609.753906 259.828125 610.527344 259.339844 610.535156 C 257.464844 610.554688 255.882812 608.539062 256.5 606.914062 C 256.667969 606.46875 258.90625 604.050781 261.46875 601.539062 C 268.101562 595.039062 272.996094 589.097656 284.488281 573.601562 C 290.007812 566.15625 292.90625 562.964844 301.542969 554.8125 C 310.667969 546.203125 314.136719 543.207031 318.335938 540.328125 C 322.03125 537.789062 333.324219 531.226562 333.992188 531.226562 C 334.300781 531.226562 334.4375 530.582031 334.4375 529.132812 C 334.4375 526.605469 334.796875 525.570312 336.292969 523.820312 C 337.496094 522.410156 341.433594 515.175781 341.132812 514.921875 C 340.9375 514.757812 335.519531 511.832031 332.996094 510.523438 C 328.921875 508.417969 319.808594 508.832031 307.75 511.671875 C 302.117188 513 286.445312 518.0625 282.050781 519.976562 C 277.355469 522.019531 272.699219 523.609375 269.726562 524.179688 C 267.945312 524.523438 267.378906 524.503906 266.316406 524.0625 C 263.601562 522.925781 263.105469 520.015625 264.976562 516.214844 C 267.953125 510.167969 274.21875 502.109375 282.359375 493.859375 C 285.898438 490.269531 290.773438 485.273438 293.195312 482.753906 C 298.898438 476.816406 302.726562 473.492188 309.230469 468.839844 C 317.359375 463.027344 317.863281 462.738281 326.328125 459.113281 C 336.355469 454.816406 338.339844 454.160156 349.667969 451.382812 C 363.453125 448.003906 373.03125 446.625 382.75 446.621094 L 388.230469 446.617188 L 391.152344 443.179688 C 395.746094 437.777344 412.191406 420.4375 417.171875 415.746094 C 423.835938 409.46875 427.089844 406.621094 436.84375 398.527344 C 447.5 389.683594 451.539062 386.539062 462.164062 378.804688 C 476.015625 368.722656 478.734375 366.996094 494.304688 358.378906 C 507.253906 351.214844 512.269531 348.605469 515.808594 347.191406 C 523.890625 343.96875 539.707031 338.542969 546.015625 336.835938 C 549.953125 335.769531 555.328125 334.269531 557.953125 333.5 C 566.683594 330.949219 573.011719 329.972656 582.683594 329.683594 L 589.273438 329.488281 L 590.308594 330.523438 L 591.34375 331.554688 L 591.25 336.648438 C 591.117188 343.882812 589.636719 350.457031 585.148438 363.773438 C 578.664062 383.019531 575.039062 391.558594 563.679688 414.363281 C 555.316406 431.140625 551.074219 438.027344 541.742188 449.96875 C 539.46875 452.875 534.832031 458.984375 531.4375 463.539062 C 522.53125 475.5 513.875 485.625 503.304688 496.449219 C 495.570312 504.371094 489.113281 510.089844 468.476562 527.308594 L 458.171875 535.90625 L 458.171875 537.914062 C 458.171875 539.015625 457.773438 543.078125 457.285156 546.941406 C 456.796875 550.800781 456.167969 557.019531 455.886719 560.753906 C 455.199219 569.867188 454.164062 574.183594 451.28125 579.902344 C 449.351562 583.738281 445.363281 590.042969 443.472656 592.25 C 441.238281 594.859375 426.449219 609.242188 420.488281 614.597656 C 406.683594 627.003906 392.035156 638.617188 387.136719 641.035156 C 383.46875 642.847656 379.964844 643.835938 378.214844 643.554688 C 374.714844 642.984375 373.824219 639.019531 375.867188 633.101562 C 378.300781 626.054688 380.351562 620.566406 381.636719 617.65625 C 385.179688 609.652344 388.148438 599.828125 390.183594 589.390625 C 391.113281 584.628906 391.355469 574.652344 390.578125 573.292969 L 390.140625 572.527344 L 385.40625 574.183594 C 382.800781 575.09375 380.367188 576.113281 379.996094 576.445312 C 379.070312 577.285156 378.050781 577.203125 376.527344 576.171875 C 375.816406 575.6875 375.023438 575.289062 374.773438 575.289062 C 374.519531 575.289062 372.835938 577.023438 371.03125 579.144531 C 369.226562 581.265625 364.980469 586.140625 361.59375 589.984375 C 358.207031 593.824219 353.847656 598.789062 351.898438 601.007812 C 349.953125 603.230469 347.328125 606.148438 346.070312 607.496094 C 343.738281 609.984375 332.132812 620.148438 325.09375 625.871094 C 322.960938 627.601562 318.121094 632.050781 314.34375 635.753906 C 310.5625 639.457031 306.941406 642.914062 306.296875 643.433594 C 304.285156 645.0625 301.636719 644.460938 301.117188 642.257812 C 300.828125 641.023438 302.917969 636.957031 307.003906 630.8125 C 308.808594 628.097656 310.335938 625.757812 310.402344 625.613281 C 310.46875 625.46875 306.980469 627.929688 302.648438 631.078125 C 298.320312 634.226562 292.871094 637.984375 290.546875 639.421875 C 288.21875 640.863281 284.09375 643.582031 281.382812 645.460938 C 272.175781 651.839844 268.5 653.988281 251.59375 662.878906 C 247.253906 665.15625 243.597656 667.398438 240.664062 669.570312 C 238.242188 671.367188 234.355469 674.15625 232.027344 675.769531 C 229.699219 677.378906 226.882812 679.394531 225.765625 680.246094 C 223.164062 682.234375 221.664062 682.523438 220.421875 681.28125 Z M 239.695312 663.523438 C 242.359375 661.519531 246.800781 658.277344 249.566406 656.316406 C 256.566406 651.34375 262.453125 646.78125 266.480469 643.191406 C 269.75 640.28125 271.480469 638.410156 283.800781 624.46875 C 291.394531 615.875 294.851562 612.574219 299.984375 609.019531 C 302.453125 607.304688 304.644531 605.585938 304.855469 605.199219 C 305.0625 604.808594 305.808594 604.25 306.511719 603.957031 C 309.90625 602.539062 312.375 604.128906 311.410156 607.109375 C 311.179688 607.828125 309.71875 609.023438 305.855469 611.65625 C 297.234375 617.527344 296.726562 618.023438 280.714844 636.261719 C 278.410156 638.890625 275.476562 642.128906 274.195312 643.46875 L 271.863281 645.898438 L 274.328125 644.1875 C 275.6875 643.25 278.382812 641.351562 280.324219 639.976562 C 282.261719 638.597656 285.832031 636.203125 288.253906 634.65625 C 293.382812 631.386719 307.53125 620.855469 315.394531 614.457031 C 327.328125 604.75 327.285156 604.773438 329.277344 606.339844 C 330.84375 607.574219 330.570312 609.09375 328.347656 611.515625 C 327.324219 612.628906 325.472656 614.890625 324.226562 616.535156 C 322.980469 618.183594 321.011719 620.722656 319.84375 622.175781 C 318.679688 623.632812 318.035156 624.570312 318.414062 624.261719 C 337.214844 608.929688 340.421875 605.847656 354.707031 589.390625 C 357.808594 585.816406 361.4375 581.695312 362.769531 580.238281 C 365.855469 576.855469 368.984375 573.015625 368.980469 572.609375 C 368.980469 572.4375 368.304688 571.914062 367.480469 571.445312 C 365.503906 570.320312 361.140625 567.09375 359.261719 565.359375 L 357.757812 563.972656 L 352.355469 568.328125 C 345.277344 574.03125 343.085938 575.550781 334.320312 580.820312 C 326.332031 585.625 324.175781 586.574219 321.246094 586.574219 C 316.695312 586.574219 315.027344 584.21875 316.804688 580.304688 C 318.632812 576.277344 327.121094 565.402344 336.417969 555.175781 C 339.691406 551.578125 342.664062 548.292969 343.027344 547.875 C 343.683594 547.121094 343.675781 547.101562 341.859375 545.25 C 340.007812 543.367188 338.34375 540.898438 336.867188 537.835938 C 336.421875 536.914062 335.917969 536.160156 335.742188 536.160156 C 335.269531 536.160156 325.839844 541.613281 322.582031 543.769531 C 318.109375 546.730469 314.710938 549.621094 306.558594 557.394531 C 296.199219 567.277344 294.351562 569.316406 288.195312 577.691406 C 281.484375 586.824219 277.609375 591.855469 274.164062 595.914062 C 272.683594 597.660156 271.355469 599.28125 271.207031 599.523438 C 270.757812 600.265625 273.824219 598.769531 278.21875 596.097656 C 282.902344 593.253906 286.925781 591.15625 287.699219 591.15625 C 288.757812 591.15625 289.980469 591.980469 290.390625 592.964844 C 291.082031 594.636719 290.351562 595.65625 286.21875 598.789062 C 273.484375 608.441406 268.582031 613.9375 258.84375 629.46875 C 251.003906 641.980469 244.679688 651.789062 239.050781 660.167969 C 236.28125 664.289062 234.203125 667.550781 234.433594 667.414062 C 234.660156 667.277344 237.027344 665.527344 239.695312 663.523438 Z M 383.660156 636.636719 C 384.9375 636.054688 386.9375 634.929688 388.109375 634.128906 C 393.0625 630.75 407.519531 619.0625 412.511719 614.402344 C 413.875 613.132812 416.574219 610.691406 418.511719 608.976562 C 420.453125 607.261719 425.980469 601.957031 430.796875 597.183594 C 440.027344 588.042969 442.023438 585.566406 445.683594 578.6875 C 448.835938 572.757812 449.816406 568.886719 450.410156 560.039062 C 450.609375 557.085938 451.167969 551.574219 451.652344 547.792969 C 452.132812 544.015625 452.527344 540.792969 452.53125 540.636719 C 452.53125 540.480469 451.621094 541.015625 450.503906 541.828125 C 441.152344 548.625 432.671875 553.484375 418.53125 560.140625 C 412.898438 562.796875 407.574219 565.316406 406.703125 565.746094 C 405.832031 566.171875 402.976562 567.402344 400.359375 568.480469 C 397.742188 569.554688 395.550781 570.480469 395.488281 570.535156 C 395.429688 570.589844 395.625 571.835938 395.929688 573.300781 C 396.566406 576.375 396.640625 581.429688 396.113281 585.402344 C 394.671875 596.25 390.925781 610.007812 386.964844 619.003906 C 386.152344 620.847656 384.800781 624.335938 383.964844 626.761719 C 383.128906 629.183594 382.054688 632.199219 381.578125 633.457031 C 380.296875 636.855469 380.140625 637.6875 380.792969 637.6875 C 381.09375 637.6875 382.382812 637.214844 383.660156 636.636719 Z M 330.226562 576.878906 C 343.308594 569.160156 350.074219 563.847656 370.394531 545.332031 C 374.175781 541.886719 378.855469 537.746094 380.792969 536.128906 C 389.117188 529.191406 395.390625 523.417969 402.828125 515.855469 C 414.136719 504.351562 418.679688 498.96875 420.253906 495.203125 L 420.796875 493.902344 L 419.175781 492.808594 C 418.039062 492.042969 417.335938 491.789062 416.800781 491.953125 C 413.6875 492.917969 405.761719 497.851562 398.023438 503.636719 C 388.292969 510.910156 379.683594 518.628906 362.332031 535.632812 C 355.574219 542.257812 340.328125 558.699219 333.441406 566.792969 C 330.652344 570.070312 323.820312 578.984375 323.175781 580.1875 C 322.816406 580.863281 322.851562 580.894531 323.609375 580.609375 C 324.0625 580.4375 327.039062 578.757812 330.226562 576.878906 Z M 382.960938 569.152344 C 387.695312 567.53125 394.917969 564.835938 395.695312 564.402344 C 395.980469 564.242188 394.675781 563.273438 392.144531 561.769531 C 386.453125 558.382812 382.335938 555.226562 378.65625 551.425781 L 375.460938 548.128906 L 372.316406 551 C 370.585938 552.582031 367.53125 555.320312 365.519531 557.089844 L 361.871094 560.308594 L 363.222656 561.492188 C 365.621094 563.585938 368.394531 565.636719 370.921875 567.1875 C 373.609375 568.835938 377.382812 570.707031 378.015625 570.707031 C 378.234375 570.707031 380.460938 570.007812 382.960938 569.152344 Z M 412.039062 557.183594 C 437.097656 545.5 442.035156 542.3125 465.929688 522.398438 C 483.847656 507.46875 488.511719 503.371094 496.191406 495.8125 C 508.171875 484.015625 516.984375 473.816406 529.007812 457.820312 C 533.273438 452.144531 538.117188 445.757812 539.773438 443.625 C 543.300781 439.085938 547.699219 432.558594 551.015625 426.949219 C 554.25 421.472656 569.433594 390.617188 570.40625 387.542969 C 570.625 386.851562 570.445312 386.78125 567.546875 386.425781 C 562.039062 385.746094 558.8125 384.050781 551.257812 377.867188 C 539.890625 368.566406 535.976562 362.472656 533.980469 350.9375 C 533.582031 348.625 533.214844 346.699219 533.167969 346.660156 C 533.027344 346.546875 518.5 351.933594 515.632812 353.164062 C 514.179688 353.789062 508.785156 356.621094 503.648438 359.453125 C 480.152344 372.417969 480.097656 372.449219 464.902344 383.476562 C 451.972656 392.859375 437.78125 404.230469 426.972656 413.867188 C 422.171875 418.148438 410.257812 430.144531 401.980469 439.035156 C 389.761719 452.160156 374.386719 472.320312 359.140625 495.207031 L 352.722656 504.84375 L 353.300781 507.144531 C 354.179688 510.652344 355.777344 514.582031 357.621094 517.773438 C 359.28125 520.640625 363.660156 526.332031 364.101562 526.1875 C 364.230469 526.148438 367.71875 522.910156 371.859375 518.992188 C 392.1875 499.753906 413.324219 485.152344 419.238281 486.257812 C 419.949219 486.394531 420.949219 486.925781 421.460938 487.445312 C 421.972656 487.96875 422.972656 488.65625 423.683594 488.980469 C 427.714844 490.8125 426.738281 497.191406 421.40625 503.816406 C 417.808594 508.292969 411.347656 515.183594 403.296875 523.140625 C 396.070312 530.285156 392.550781 533.457031 382.820312 541.59375 C 381.21875 542.933594 379.910156 544.148438 379.910156 544.296875 C 379.910156 544.914062 384.164062 549.433594 386.609375 551.414062 C 391.621094 555.472656 401.089844 561.191406 402.796875 561.191406 C 403.15625 561.191406 407.3125 559.386719 412.039062 557.183594 Z M 488.46875 459.5 C 484.851562 458.972656 482.445312 458.21875 479.148438 456.570312 C 472.023438 453.015625 467.363281 448.460938 464.023438 441.808594 C 462.039062 437.84375 461.605469 435.371094 461.777344 428.992188 C 461.917969 423.972656 462.023438 423.257812 463.070312 420.179688 C 466.070312 411.371094 471.675781 404.105469 477.886719 400.976562 C 481.203125 399.304688 482.554688 398.96875 487.078125 398.683594 C 491.417969 398.410156 492.128906 398.464844 500.925781 399.742188 C 503.695312 400.144531 506.601562 401.503906 510.222656 404.097656 C 511.613281 405.089844 513.65625 406.457031 514.765625 407.136719 C 519.574219 410.074219 522.453125 413.933594 524.679688 420.433594 C 525.464844 422.722656 525.621094 423.792969 525.621094 426.878906 C 525.621094 430.160156 525.472656 431.054688 524.320312 434.75 C 522.074219 441.9375 519.21875 446.609375 513.71875 452.101562 C 511.160156 454.65625 509.890625 455.613281 507.347656 456.914062 C 502.46875 459.40625 500.070312 460.023438 495.414062 459.976562 C 493.253906 459.957031 490.128906 459.742188 488.46875 459.5 Z M 498.5 454.382812 C 501.269531 453.929688 506.609375 451.289062 508.875 449.25 C 511.398438 446.984375 515.011719 442.386719 516.464844 439.597656 C 518.113281 436.433594 519.90625 430.714844 520.121094 427.929688 C 520.335938 425.171875 519.667969 422.285156 517.980469 418.667969 C 516.613281 415.734375 514.390625 413.367188 511.226562 411.464844 C 510.0625 410.765625 508.082031 409.449219 506.820312 408.535156 C 503.160156 405.878906 501.867188 405.367188 497.34375 404.796875 C 489.414062 403.792969 486.40625 403.683594 483.875 404.300781 C 477.347656 405.894531 471.382812 412.527344 468.167969 421.765625 C 467.273438 424.339844 467.1875 425.039062 467.175781 429.699219 C 467.160156 435.519531 467.523438 437.070312 469.851562 441.058594 C 473.628906 447.53125 480.949219 452.585938 488.34375 453.824219 C 493.707031 454.726562 495.734375 454.835938 498.5 454.382812 Z M 489.722656 446.765625 C 483.097656 445.324219 478.183594 441.082031 476.179688 435.085938 C 473.742188 427.796875 477.734375 416.71875 484.347656 412.421875 C 489.074219 409.347656 494.015625 408.785156 498.894531 410.761719 C 502.367188 412.171875 506.296875 414.738281 507.742188 416.542969 C 510.675781 420.203125 512.109375 423.75 512.109375 427.355469 C 512.109375 432.214844 509.15625 439.070312 505.566406 442.566406 C 501.738281 446.292969 495.332031 447.988281 489.722656 446.765625 Z M 498.59375 440.636719 C 500.730469 439.691406 501.964844 438.546875 503.699219 435.894531 C 506.378906 431.800781 507.207031 426.683594 505.710938 423.496094 C 504.476562 420.875 501.871094 418.316406 498.980469 416.894531 C 495.597656 415.230469 493.746094 414.835938 491.496094 415.300781 C 489.597656 415.695312 486.726562 417.164062 486.726562 417.738281 C 486.726562 417.933594 486.160156 418.425781 485.464844 418.832031 C 481.964844 420.898438 479.695312 429 481.300781 433.703125 C 481.929688 435.558594 484.796875 438.925781 486.511719 439.828125 C 490.195312 441.765625 495.273438 442.105469 498.59375 440.636719 Z M 353.90625 536.332031 L 360.09375 529.980469 L 357.988281 527.519531 C 354.164062 523.046875 350.242188 516.484375 349.40625 513.148438 C 349.273438 512.617188 349.027344 512.097656 348.859375 511.996094 C 348.695312 511.894531 347.847656 513.222656 346.980469 514.945312 C 345.015625 518.859375 341.667969 524.683594 340.503906 526.210938 C 339.832031 527.097656 339.621094 527.8125 339.597656 529.273438 C 339.574219 530.917969 339.847656 531.738281 341.5625 535.171875 C 342.992188 538.039062 344.070312 539.679688 345.40625 541.015625 C 346.429688 542.035156 347.367188 542.828125 347.488281 542.777344 C 347.613281 542.726562 350.5 539.824219 353.90625 536.332031 Z M 274.582031 516.980469 C 276.382812 516.316406 279.839844 514.976562 282.261719 514 C 284.6875 513.023438 290 511.171875 294.070312 509.886719 C 307.667969 505.601562 317.152344 503.730469 325.269531 503.734375 C 331.269531 503.742188 333.277344 504.273438 338.757812 507.304688 C 341.230469 508.675781 343.460938 509.714844 343.710938 509.621094 C 343.960938 509.523438 344.679688 508.484375 345.304688 507.3125 C 349.449219 499.535156 371.804688 467.429688 383.554688 452.382812 L 384.199219 451.554688 L 382.320312 451.554688 C 380.199219 451.554688 373.203125 452.324219 366.265625 453.320312 C 361.265625 454.039062 345.917969 457.644531 340.429688 459.390625 C 338.585938 459.976562 333.316406 462.082031 328.722656 464.074219 C 320.792969 467.507812 320.054688 467.910156 314.445312 471.871094 C 306.527344 477.457031 303.113281 480.351562 297.25 486.445312 C 294.542969 489.261719 289.734375 494.164062 286.566406 497.34375 C 283.402344 500.519531 279.453125 504.863281 277.792969 507 C 274.976562 510.625 270.277344 517.480469 270.277344 517.964844 C 270.277344 518.40625 271.386719 518.152344 274.582031 516.976562 Z M 573.582031 379.730469 C 581.566406 358.878906 585.785156 344.335938 585.785156 337.6875 L 585.785156 335.125 L 580.585938 335.324219 C 572.71875 335.621094 567.101562 336.617188 556.527344 339.59375 C 551.386719 341.042969 545.28125 342.75 542.953125 343.394531 L 538.722656 344.5625 L 538.847656 346.292969 C 539.054688 349.160156 540.503906 355.703125 541.457031 358.058594 C 543.550781 363.238281 547.523438 367.964844 554.988281 374.152344 C 562.0625 380.019531 564.855469 381.371094 569.933594 381.390625 L 572.941406 381.402344 Z M 573.582031 379.730469 " fill-opacity="1" fill-rule="nonzero"/></g></svg>