<svg xmlns="http://www.w3.org/2000/svg" xmlns:xlink="http://www.w3.org/1999/xlink" width="1080" zoomAndPan="magnify" viewBox="0 0 810 1012.49997" height="1350" preserveAspectRatio="xMidYMid meet" version="1.0"><defs><clipPath id="e85f5ef8c8"><path d="M 561 523 L 618.140625 523 L 618.140625 590 L 561 590 Z M 561 523 " clip-rule="nonzero"/></clipPath><clipPath id="72f6690baf"><path d="M 191.601562 700 L 288 700 L 288 717.261719 L 191.601562 717.261719 Z M 191.601562 700 " clip-rule="nonzero"/></clipPath><clipPath id="54572af970"><path d="M 202 294.46875 L 475 294.46875 L 475 623 L 202 623 Z M 202 294.46875 " clip-rule="nonzero"/></clipPath></defs><path fill="#c9b3ff" d="M 307.789062 403.246094 C 307.453125 402.910156 307.355469 402.265625 307.550781 401.828125 C 307.777344 401.320312 311.539062 399.011719 312.136719 398.871094 C 314.078125 398.421875 315.027344 400.011719 313.535156 401.175781 C 313.285156 401.371094 309.453125 403.4375 309.214844 403.496094 C 308.738281 403.621094 308.152344 403.609375 307.789062 403.246094 Z M 307.789062 403.246094 " fill-opacity="1" fill-rule="nonzero"/><path fill="#c9b3ff" d="M 310.042969 393.164062 C 311.742188 392.917969 313.132812 394.054688 311.789062 395.21875 C 311.566406 395.414062 306.6875 397.210938 306.277344 397.257812 C 305.066406 397.394531 304.566406 395.867188 305.300781 395.046875 C 305.671875 394.632812 309.363281 393.261719 310.042969 393.164062 Z M 310.042969 393.164062 " fill-opacity="1" fill-rule="nonzero"/><path fill="#c9b3ff" d="M 360.273438 383.546875 C 360.914062 384.398438 360.402344 385.355469 359.535156 385.8125 C 359.261719 385.957031 355.007812 387.367188 354.757812 387.382812 C 353.34375 387.472656 352.894531 385.636719 354.046875 384.839844 C 354.84375 384.285156 359.496094 382.792969 360.273438 383.546875 Z M 360.273438 383.546875 " fill-opacity="1" fill-rule="nonzero"/><path fill="#c9b3ff" d="M 356.972656 376.90625 C 358.742188 376.710938 359.613281 378.128906 358.097656 379.265625 C 357.875 379.433594 353.21875 381.269531 352.898438 381.3125 C 351.796875 381.457031 351.550781 381.011719 351.332031 380.003906 C 351.382812 378.800781 355.925781 377.023438 356.972656 376.90625 Z M 356.972656 376.90625 " fill-opacity="1" fill-rule="nonzero"/><path fill="#c9b3ff" d="M 310.933594 378.722656 C 316.046875 377.574219 317.925781 388.707031 312.386719 387.667969 C 309.296875 387.085938 307.65625 379.457031 310.933594 378.722656 Z M 310.933594 378.722656 " fill-opacity="1" fill-rule="nonzero"/><path fill="#c9b3ff" d="M 344.921875 365.789062 C 349.308594 364.804688 351.769531 373.402344 347.964844 374.550781 C 343.617188 375.867188 340.917969 366.683594 344.921875 365.789062 Z M 344.921875 365.789062 " fill-opacity="1" fill-rule="nonzero"/><path fill="#c9b3ff" d="M 335.921875 381.429688 C 340.582031 380.90625 336.503906 387.5625 336.710938 388.585938 C 337.421875 392.085938 344.308594 393.261719 344.421875 388.722656 C 344.460938 387.054688 342.054688 385.527344 344.871094 384.363281 C 349.199219 385.28125 348.035156 391.632812 345.109375 393.644531 C 342.6875 395.3125 339.480469 395.367188 337.035156 393.703125 C 336.160156 395.117188 335.871094 396.691406 334.640625 397.917969 C 331.972656 400.585938 326.359375 400.832031 324.183594 397.53125 C 323.207031 396.050781 322.566406 392.53125 325.003906 392.519531 C 326.980469 392.507812 326.324219 394.976562 326.808594 395.804688 C 327.488281 396.960938 330.328125 396.855469 331.449219 396.230469 C 333.234375 395.234375 334.296875 391.878906 333.429688 390.085938 C 332.707031 388.585938 326.339844 388.050781 328.199219 384.859375 C 328.816406 383.800781 334.5625 381.582031 335.921875 381.429688 Z M 335.921875 381.429688 " fill-opacity="1" fill-rule="nonzero"/><path fill="#c9b3ff" d="M 368.363281 448.847656 C 370.175781 450.511719 371.167969 454.449219 369.933594 456.671875 C 368.917969 458.5 363.359375 461.054688 361.394531 461.027344 C 359.242188 460.996094 356.390625 458.023438 355.96875 455.976562 C 355.226562 452.363281 356.765625 450.871094 359.757812 449.503906 C 362.40625 448.292969 365.894531 446.574219 368.363281 448.847656 Z M 359.234375 453.339844 C 358.09375 454.671875 360.273438 457.675781 361.691406 457.742188 C 362.027344 457.757812 365.871094 456.300781 366.28125 456.027344 C 368.128906 454.816406 367.175781 451.792969 365.609375 450.835938 C 364.949219 450.773438 359.660156 452.84375 359.234375 453.339844 Z M 359.234375 453.339844 " fill-opacity="1" fill-rule="nonzero"/><path fill="#c9b3ff" d="M 371.113281 460.835938 C 375.058594 460.449219 377.976562 465.8125 374.332031 468.589844 C 373.140625 469.503906 363.808594 473.085938 362.234375 473.332031 C 357.953125 474 355.472656 469.3125 358.535156 466.328125 C 359.789062 465.101562 369.308594 461.015625 371.113281 460.835938 Z M 371.101562 464.144531 C 369.691406 464.351562 362.664062 467.378906 361.34375 468.234375 C 360.230469 468.960938 360.003906 469.34375 361.132812 470.359375 L 372.199219 466.15625 C 373.253906 464.945312 372.839844 463.894531 371.101562 464.144531 Z M 371.101562 464.144531 " fill-opacity="1" fill-rule="nonzero"/><path fill="#c9b3ff" d="M 318.175781 304.152344 C 332.875 303.421875 346.679688 308.328125 358.210938 317.179688 C 385.46875 338.09375 383.03125 379.898438 361.105469 403.929688 C 331.6875 436.167969 273.765625 431.382812 258.601562 387.613281 C 244.789062 347.742188 277.546875 306.167969 318.175781 304.152344 Z M 331.699219 351.808594 C 328.945312 352.628906 326.125 353.054688 323.351562 353.84375 C 319.132812 355.046875 314.582031 356.894531 310.710938 358.949219 C 309.023438 359.847656 304.03125 363.425781 302.722656 363.605469 C 300.3125 363.9375 292.460938 359.464844 289.660156 358.359375 C 287.898438 357.664062 281.828125 355.042969 281.289062 358.125 C 281.105469 359.175781 282.230469 362.410156 282.605469 363.605469 C 283.851562 367.566406 285.886719 371.378906 287.179688 375.277344 C 288.71875 379.898438 287.492188 381.566406 287.261719 386.03125 C 286.34375 403.675781 298.4375 414.148438 313.871094 419.570312 C 319.582031 421.574219 320.980469 421.609375 326.964844 420.320312 C 340.84375 417.328125 354.523438 408.410156 362.878906 396.980469 C 365.421875 393.5 366.390625 391.691406 366.675781 387.242188 C 367.417969 375.796875 363.84375 364.878906 355.238281 357.148438 C 354.035156 356.066406 352.507812 355.222656 351.320312 354.148438 C 347.90625 351.0625 346.285156 342.316406 344.25 337.753906 C 343.601562 336.292969 342.925781 334.734375 341.695312 333.671875 L 341.101562 333.671875 C 336.199219 338.605469 333.976562 345.402344 331.699219 351.808594 Z M 331.699219 351.808594 " fill-opacity="1" fill-rule="nonzero"/><path fill="#c9b3ff" d="M 367.1875 440.695312 C 370.210938 440.191406 373.449219 441.886719 374.953125 444.515625 C 378.425781 450.582031 380.210938 460.011719 383.371094 466.472656 C 384.09375 469.527344 382.742188 472.523438 379.964844 473.921875 C 370.207031 477.101562 359.816406 483.078125 350.109375 485.875 C 347.351562 486.667969 345.210938 486.546875 343.046875 484.542969 C 340.804688 482.472656 337.316406 472.101562 336.0625 468.667969 C 333.429688 461.464844 329.738281 455.863281 338.789062 451.695312 C 347.777344 447.558594 358.058594 444.6875 367.1875 440.695312 Z M 367.488281 444.003906 C 358.707031 448.109375 347.558594 450.625 339.089844 455.003906 C 335.777344 456.714844 335.914062 458.546875 336.882812 461.828125 C 338.402344 466.980469 341.433594 474.789062 343.660156 479.71875 C 344.757812 482.148438 345.742188 483.886719 348.78125 483.042969 C 357.574219 479.175781 366.910156 476.214844 375.679688 472.34375 C 379.257812 470.761719 381.167969 470.5 379.90625 466.03125 C 378.496094 461.042969 374.664062 451.15625 372.335938 446.527344 C 371.199219 444.269531 370.160156 443.589844 367.488281 444.003906 Z M 367.488281 444.003906 " fill-opacity="1" fill-rule="nonzero"/><path fill="#c9b3ff" d="M 240.535156 596.796875 C 241.351562 596.726562 242.074219 597.640625 242.132812 598.390625 L 241.859375 598.996094 C 234.566406 605.136719 227.546875 611.558594 221.550781 619.003906 C 219.796875 619.789062 218.683594 618.546875 219.621094 616.765625 C 220.496094 615.097656 224.808594 610.652344 226.34375 609.054688 C 228.585938 606.722656 231.28125 604.109375 233.714844 601.988281 C 234.757812 601.074219 239.625 596.875 240.535156 596.796875 Z M 240.535156 596.796875 " fill-opacity="1" fill-rule="nonzero"/><path fill="#c9b3ff" d="M 457.273438 535.738281 C 457.699219 535.320312 466.246094 534.304688 467.582031 534.167969 C 476.804688 533.226562 488.820312 532.503906 497.933594 533.890625 C 499.4375 534.117188 500.503906 534.863281 499.640625 536.449219 C 498.820312 537.480469 492.070312 536.308594 490.449219 536.257812 C 483.035156 536.015625 475.261719 536.476562 467.882812 537.175781 C 465.125 537.4375 461.128906 538.492188 458.550781 538.40625 C 456.871094 538.347656 456.277344 536.71875 457.273438 535.738281 Z M 457.273438 535.738281 " fill-opacity="1" fill-rule="nonzero"/><path fill="#c9b3ff" d="M 497.71875 480.984375 C 510.753906 480.683594 523.832031 481.097656 536.710938 483.082031 C 539.511719 483.511719 542.59375 484.003906 545.335938 484.683594 C 547.230469 485.152344 550.210938 485.433594 548.34375 487.996094 C 548.019531 488.207031 547.667969 488.167969 547.304688 488.15625 C 544.636719 488.070312 539.75 486.554688 536.710938 486.089844 C 528.855469 484.886719 520.632812 484.171875 512.710938 483.921875 C 508.410156 483.785156 502.246094 484.527344 498.28125 483.914062 C 496.351562 483.613281 496.515625 481.339844 497.71875 480.984375 Z M 497.71875 480.984375 " fill-opacity="1" fill-rule="nonzero"/><path fill="#c9b3ff" d="M 328.992188 584.136719 C 330.085938 583.980469 331.203125 585.648438 330.140625 586.523438 C 315.589844 595.9375 299.433594 605.640625 289.839844 620.515625 C 289.097656 621.664062 288.007812 625.46875 286.183594 624.121094 C 284.734375 623.050781 286.503906 620.34375 287.207031 619.085938 C 293.824219 607.222656 311.941406 594.144531 323.558594 587.160156 C 324.5625 586.558594 328.183594 584.25 328.992188 584.136719 Z M 328.992188 584.136719 " fill-opacity="1" fill-rule="nonzero"/><path fill="#c9b3ff" d="M 496.542969 493.949219 C 509.292969 493.425781 527.722656 494.15625 539.773438 498.367188 C 541.410156 498.9375 543.019531 499.253906 541.550781 501.355469 C 541.191406 501.566406 540.820312 501.6875 540.398438 501.667969 C 538.824219 501.597656 534.9375 500.125 533.003906 499.722656 C 510.371094 494.988281 487.824219 496.902344 465.1875 500.476562 C 462.730469 498.984375 464.515625 497.808594 466.515625 497.308594 C 474.796875 495.238281 487.875 494.300781 496.542969 493.949219 Z M 496.542969 493.949219 " fill-opacity="1" fill-rule="nonzero"/><g clip-path="url(#e85f5ef8c8)"><path fill="#c9b3ff" d="M 616.839844 523.6875 C 620.320312 523.183594 616.867188 530.492188 616.273438 531.867188 C 608.429688 550.023438 588.371094 569.535156 573.148438 581.980469 C 571.925781 582.980469 563.878906 589.460938 563.207031 589.519531 C 561.871094 589.636719 561.015625 587.746094 562.046875 586.820312 C 580.449219 572.003906 603.578125 553.101562 613.363281 531.058594 C 614.160156 529.265625 615 525.75 615.773438 524.449219 C 616.011719 524.046875 616.375 523.753906 616.839844 523.6875 Z M 616.839844 523.6875 " fill-opacity="1" fill-rule="nonzero"/></g><g clip-path="url(#72f6690baf)"><path fill="#c9b3ff" d="M 192.957031 700.015625 C 193.660156 699.988281 199.527344 702.925781 200.851562 703.4375 C 227.71875 713.816406 258.269531 714.546875 286.796875 714.34375 C 288.117188 714.457031 288.296875 716.625 287.046875 716.984375 C 286.5625 717.121094 284.484375 717.292969 283.796875 717.339844 C 277.175781 717.785156 270.234375 717.253906 263.644531 717.046875 C 242.683594 716.375 220.226562 713.96875 200.558594 706.4375 C 199.15625 705.902344 191.949219 703.050781 191.65625 702.09375 C 191.375 701.171875 191.976562 700.054688 192.957031 700.015625 Z M 192.957031 700.015625 " fill-opacity="1" fill-rule="nonzero"/></g><path fill="#c9b3ff" d="M 284.175781 580.859375 C 284.742188 581.421875 284.550781 582.550781 283.925781 583.019531 C 275.082031 588.378906 266.324219 593.921875 258.113281 600.21875 C 243.277344 611.589844 226.628906 627.292969 221.171875 645.691406 C 220.769531 647.046875 220.136719 652 219.070312 652.324219 C 215.675781 653.351562 217.804688 646.707031 218.226562 645.15625 C 224.597656 621.703125 250.835938 600.65625 270.4375 587.878906 C 273.625 585.800781 277.703125 582.984375 281.039062 581.335938 C 281.921875 580.902344 283.261719 579.957031 284.175781 580.859375 Z M 284.175781 580.859375 " fill-opacity="1" fill-rule="nonzero"/><path fill="#c9b3ff" d="M 563.453125 453.179688 C 562.769531 452.386719 563.15625 450.964844 564.421875 450.820312 C 566.359375 450.605469 573.96875 453.019531 576.25 453.769531 C 612.851562 465.792969 621.765625 492.335938 603.136719 525.945312 C 576.867188 573.328125 509.320312 610.769531 460.5 630.855469 C 426.75 644.742188 390.019531 655.640625 353.832031 661.046875 C 330.128906 664.585938 287.527344 668.597656 266.832031 655.203125 C 265.167969 654.128906 259.015625 649.265625 259.007812 647.414062 C 259.003906 646.128906 260.335938 645.683594 261.394531 646.207031 C 261.652344 646.332031 264.5 649.746094 265.296875 650.421875 C 281.117188 663.871094 317.070312 662.050781 336.734375 660.191406 C 383.894531 655.734375 435.328125 639.773438 478.160156 619.941406 C 522.152344 599.570312 586.324219 561.269531 605.328125 514.601562 C 617.34375 485.101562 603.851562 466.035156 575.777344 456.648438 C 573.996094 456.054688 563.871094 453.664062 563.453125 453.179688 Z M 563.453125 453.179688 " fill-opacity="1" fill-rule="nonzero"/><g clip-path="url(#54572af970)"><path fill="#c9b3ff" d="M 380.566406 387.019531 C 380.597656 387.085938 380.988281 387.105469 381.09375 387.296875 C 385.394531 395.046875 387.4375 405.113281 391.195312 413.230469 C 391.8125 414.171875 393.449219 413.890625 394.484375 413.847656 C 413.046875 413.0625 421.015625 398.632812 433.59375 387.683594 C 439.457031 380.5 435.441406 373.722656 437.738281 366.261719 C 439.222656 361.4375 443.808594 358.953125 446.824219 364.214844 C 449.503906 361.011719 457.710938 355.625 458.40625 363.015625 C 463.070312 359.542969 469.230469 360.144531 466.226562 367.226562 C 470.839844 366.902344 471.496094 371.289062 469.835938 374.746094 C 478.605469 376.414062 471.941406 384.210938 468.925781 388.125 C 463.710938 394.882812 457.78125 400.308594 452.234375 406.625 C 443.925781 416.085938 436.621094 427.136719 428.035156 436.265625 C 421.226562 443.503906 413.953125 446.671875 404.554688 449.515625 C 406.464844 456.230469 409.703125 463 411.398438 469.730469 C 411.882812 471.65625 412.242188 472.996094 412.070312 475.050781 C 412.039062 475.429688 411.585938 475.777344 411.582031 475.964844 C 411.578125 476.21875 413.511719 478.5625 413.753906 479.703125 C 414.074219 481.210938 413.714844 482.734375 414.019531 484.25 C 414.523438 486.769531 419.042969 496.976562 420.652344 498.976562 C 426.523438 506.273438 434.351562 513.164062 440.511719 520.625 C 448.003906 529.695312 449.75 531.957031 451.445312 543.980469 C 452.292969 549.988281 452.964844 556.417969 452.832031 562.453125 C 458.355469 565 469.46875 566.242188 467.894531 574.785156 C 466.449219 582.613281 454.136719 584.699219 447.640625 585.8125 C 443.46875 586.527344 432.648438 588.296875 429.113281 586.765625 C 426.28125 585.546875 423.917969 581.355469 422.371094 578.769531 C 420.734375 576.03125 420.921875 576.035156 418.742188 573.675781 C 415.96875 570.671875 411.222656 559.96875 408.714844 555.730469 C 407.519531 553.710938 406.273438 551.492188 404.933594 549.585938 C 400.082031 542.691406 392.757812 537.230469 386.808594 531.289062 L 382.003906 532.664062 C 387.570312 539.171875 393.199219 545.703125 398.367188 552.542969 C 402.390625 557.867188 406.90625 563.308594 408.332031 569.949219 C 410.136719 578.371094 411.183594 587.394531 412.433594 595.925781 C 416.273438 599.015625 423.703125 601.183594 424.382812 606.835938 C 425.203125 613.636719 420.476562 615.375 415.167969 617.40625 C 409.203125 619.683594 397.164062 623.125 391.011719 621.859375 C 385.382812 620.703125 385.152344 611.480469 384.414062 606.953125 L 382.09375 606.5625 L 362.144531 577.9375 C 347.605469 563.652344 335.109375 547.488281 325.460938 529.492188 C 322.660156 530.910156 319.484375 532.132812 316.273438 532.074219 C 308.429688 531.933594 300.871094 523.839844 297.785156 517.167969 L 284.824219 482.753906 L 274.1875 483.945312 C 259.058594 484.53125 248.003906 479.714844 235.90625 471.363281 C 232.484375 469.003906 229.003906 465.6875 225.699219 463.527344 C 220.464844 460.113281 214.386719 458.414062 209.078125 454.28125 C 205.375 451.398438 198.34375 444.355469 205.445312 441.214844 C 203.359375 437.804688 202.785156 432.785156 207.851562 432.191406 C 206.84375 430.132812 206.214844 426.824219 208.171875 425.148438 C 212.269531 421.648438 219.046875 427.65625 222.285156 430.089844 C 220.597656 421.464844 226.964844 419.308594 231.46875 426.777344 C 234.320312 431.511719 234.84375 435.984375 239.429688 439.871094 C 241.882812 441.953125 241.546875 441.234375 244.261719 441.957031 C 252.921875 444.257812 262.140625 450.691406 271.769531 449.042969 C 272.121094 448.980469 272.304688 448.886719 272.511719 448.589844 C 270.058594 442.375 267.253906 436.183594 265.074219 429.863281 C 263.167969 424.320312 262.332031 419.707031 263.132812 413.757812 C 252.695312 403.179688 246.59375 388.820312 245.453125 373.992188 C 241.714844 325.433594 287.835938 283.960938 335.808594 296.867188 C 371.339844 306.429688 392.195312 342.984375 383.121094 378.71875 C 382.824219 379.894531 380.375 386.632812 380.566406 387.019531 Z M 316.371094 297.535156 C 266.992188 298.5625 231.527344 355.335938 256.121094 399.417969 C 282.726562 447.109375 356.425781 434.597656 376.730469 387.972656 C 395.691406 344.433594 363.71875 296.546875 316.371094 297.535156 Z M 379.292969 390.390625 L 367.980469 407.539062 L 369.664062 410.675781 C 375.707031 411.253906 381.640625 412.992188 387.71875 413.246094 Z M 397.074219 447.816406 C 403.765625 446.386719 411.105469 444.683594 417.097656 441.273438 C 422.21875 438.363281 426.328125 433.464844 430.125 429.03125 C 437.253906 420.699219 443.621094 411.691406 450.875 403.453125 L 433.75 391.597656 C 433.714844 392.050781 433.453125 392.347656 433.152344 392.652344 C 427.207031 398.714844 417.367188 409.222656 410.074219 412.894531 C 400.167969 417.878906 391.597656 417.109375 381.003906 415.605469 C 377.125 415.054688 373.269531 414.234375 369.414062 413.574219 C 368.535156 415.601562 367.246094 417.207031 365.605469 418.652344 C 355.085938 427.921875 325.515625 436.957031 311.855469 434.519531 C 310.773438 434.328125 308.335938 433.339844 307.640625 433.453125 C 305.828125 433.75 300.902344 436.554688 299.195312 437.667969 C 286.507812 445.964844 280.328125 454.894531 262.832031 451.660156 C 255.761719 450.351562 249.503906 446.65625 242.578125 444.953125 L 229.230469 462.390625 C 238.550781 469.8125 249.125 477.511719 261.078125 479.882812 C 272.066406 482.0625 284.386719 480.335938 295.007812 477.09375 C 296.21875 476.726562 303.625 474.296875 303.734375 473.566406 C 303.304688 471.527344 301.257812 467.671875 301.367188 465.734375 C 301.464844 464.035156 303.65625 463.523438 304.257812 465.28125 L 317.988281 504.9375 C 325.417969 505.046875 333.03125 504.609375 340.261719 502.796875 C 343.167969 502.070312 347.472656 499.917969 349.996094 499.601562 C 353.199219 499.199219 354.632812 500.910156 355.992188 503.480469 C 359.316406 509.753906 356.414062 511.09375 350.957031 512.890625 C 341.304688 516.058594 333.492188 516.15625 323.804688 517.628906 C 323.40625 517.691406 323.269531 517.433594 323.359375 518.066406 C 331.984375 536.644531 343.417969 553.875 357.488281 568.757812 C 357.890625 569.1875 359.105469 570.570312 359.597656 570.570312 C 370.402344 562.183594 384.066406 556.691406 397.949219 557.324219 C 392.21875 549.558594 386.121094 542.011719 379.753906 534.761719 C 378.886719 533.769531 375.996094 531.882812 377.625 530.53125 C 378.5 529.808594 383.316406 529.523438 384.714844 529.050781 C 384.027344 527.789062 384.957031 525.960938 386.425781 526.5625 L 406.0625 545.292969 C 413.203125 534.460938 424.875 525.414062 437.652344 522.433594 C 435.8125 519.789062 433.632812 517.324219 431.488281 514.910156 C 426.960938 509.800781 418.796875 502.835938 415.941406 497.070312 C 414.367188 493.890625 413.148438 490.234375 411.78125 486.941406 C 411.515625 486.746094 409.773438 488.242188 409.28125 488.5 C 404.824219 490.824219 399.613281 491.800781 395.007812 493.804688 C 392.117188 494.277344 389.613281 486.628906 389.949219 484.828125 C 390.277344 483.039062 391.722656 482.167969 393.234375 481.476562 C 397.476562 479.53125 402.753906 478.734375 406.328125 475.324219 C 402.738281 467.25 399.300781 459.070312 395.398438 451.144531 C 394.761719 449.851562 391.75 445.984375 393.433594 444.980469 C 395.164062 443.949219 396.660156 446.410156 397.074219 447.816406 Z M 265.902344 416.558594 L 265.902344 421.820312 C 265.902344 422.984375 266.976562 425.972656 267.398438 427.242188 C 269.765625 434.335938 273.316406 441.261719 275.53125 448.441406 C 285.867188 446.097656 292.625 437.339844 301.699219 432.648438 C 298.101562 431.800781 294.429688 431.277344 290.867188 430.242188 C 284.808594 428.484375 279.113281 425.664062 273.746094 422.398438 Z M 401.519531 450.28125 C 401.132812 450.03125 398.582031 450.585938 398.554688 450.996094 L 409.074219 473.40625 Z M 305 476.714844 C 302.578125 477.632812 300.195312 478.707031 297.722656 479.507812 C 294.753906 480.46875 291.457031 480.925781 288.625 481.839844 C 288.316406 481.9375 288.058594 481.929688 287.871094 482.273438 C 291.992188 492.09375 295.078125 502.371094 299.144531 512.203125 C 302.570312 520.492188 310.015625 531.757812 320.578125 528.234375 C 321.226562 528.019531 323.980469 526.933594 323.917969 526.25 L 319.601562 517.308594 C 313.1875 516.347656 310.816406 510.097656 314.5625 504.894531 Z M 409.332031 477.957031 L 392.855469 485.175781 L 394.792969 490.265625 L 395.257812 490.433594 C 398.273438 488.867188 409.429688 486.261719 410.652344 483.253906 C 411.503906 481.160156 410.289062 479.664062 409.332031 477.957031 Z M 350.652344 502.632812 C 342.773438 505.691406 334.386719 507.566406 325.90625 507.992188 C 323.847656 508.097656 318.042969 507.570312 316.632812 508.046875 C 314.585938 508.734375 316.21875 513.105469 318.773438 513.925781 C 321.433594 514.78125 327.429688 514.269531 330.417969 514.007812 C 334.371094 513.664062 338.4375 512.929688 342.304688 512.058594 C 344.273438 511.617188 353.226562 509.40625 354.066406 508.15625 C 354.519531 507.277344 353.796875 506.015625 353.375 505.195312 C 352.910156 504.300781 351.804688 502.28125 350.652344 502.632812 Z M 442.464844 528.144531 C 441.238281 526.320312 440.84375 525.277344 438.441406 525.476562 C 430.40625 526.152344 418.535156 535.285156 413.132812 541.078125 C 412.289062 541.980469 407.539062 547.621094 407.707031 548.328125 C 407.804688 548.753906 408.507812 549.21875 408.480469 549.804688 C 408.902344 549.902344 408.972656 549.742188 409.234375 549.511719 C 410.1875 548.675781 411.519531 546.398438 412.53125 545.289062 C 420.105469 536.980469 431.117188 529.578125 442.464844 528.144531 Z M 445.109375 531.519531 C 438.941406 531.03125 432.605469 533.898438 427.449219 537.046875 C 421.125 540.90625 414.746094 546.648438 410.949219 553.011719 L 421.09375 571.3125 C 429.851562 570.609375 438.402344 567.667969 445.6875 562.804688 C 447.082031 561.875 448.339844 560.4375 449.941406 559.996094 C 449.394531 553.371094 448.964844 546.675781 447.78125 540.125 C 447.25 537.179688 446.75 534.0625 445.109375 531.519531 Z M 401.855469 563.035156 C 400.910156 560.535156 399.640625 560.519531 397.191406 560.335938 C 385.324219 559.449219 370.625 565.78125 361.558594 573.117188 L 363.453125 574.410156 C 374.914062 567.675781 388.371094 562.742188 401.855469 563.035156 Z M 404.191406 566.71875 C 398.679688 565.308594 392.214844 566.539062 386.753906 567.9375 C 379.347656 569.835938 371.984375 573.089844 365.472656 577.023438 L 384.398438 604.09375 L 409.078125 592.8125 Z M 404.191406 566.71875 " fill-opacity="1" fill-rule="nonzero"/></g></svg>