<svg xmlns="http://www.w3.org/2000/svg" xmlns:xlink="http://www.w3.org/1999/xlink" width="1080" zoomAndPan="magnify" viewBox="0 0 810 1012.49997" height="1350" preserveAspectRatio="xMidYMid meet" version="1.0"><defs><clipPath id="cf6ee1ad18"><path d="M 308 424 L 393 424 L 393 515 L 308 515 Z M 308 424 " clip-rule="nonzero"/></clipPath><clipPath id="cdce9b1658"><path d="M 312.792969 414.945312 L 450.675781 440.226562 L 406.332031 682.074219 L 268.449219 656.789062 Z M 312.792969 414.945312 " clip-rule="nonzero"/></clipPath><clipPath id="4443b06aca"><path d="M 312.792969 414.945312 L 450.675781 440.226562 L 406.332031 682.074219 L 268.449219 656.789062 Z M 312.792969 414.945312 " clip-rule="nonzero"/></clipPath><clipPath id="aa38684353"><path d="M 331 560 L 415 560 L 415 669 L 331 669 Z M 331 560 " clip-rule="nonzero"/></clipPath><clipPath id="9d2866e6a0"><path d="M 312.792969 414.945312 L 450.675781 440.226562 L 406.332031 682.074219 L 268.449219 656.789062 Z M 312.792969 414.945312 " clip-rule="nonzero"/></clipPath><clipPath id="4610ae1772"><path d="M 312.792969 414.945312 L 450.675781 440.226562 L 406.332031 682.074219 L 268.449219 656.789062 Z M 312.792969 414.945312 " clip-rule="nonzero"/></clipPath><clipPath id="f92c8fe9cf"><path d="M 407 264 L 459 264 L 459 321 L 407 321 Z M 407 264 " clip-rule="nonzero"/></clipPath><clipPath id="368901eb4e"><path d="M 399.320312 278.871094 L 476.867188 239.527344 L 546.058594 375.90625 L 468.507812 415.246094 Z M 399.320312 278.871094 " clip-rule="nonzero"/></clipPath><clipPath id="d69f7553ac"><path d="M 399.320312 278.871094 L 476.867188 239.527344 L 546.058594 375.90625 L 468.507812 415.246094 Z M 399.320312 278.871094 " clip-rule="nonzero"/></clipPath><clipPath id="4cab32f951"><path d="M 466 316 L 532 316 L 532 397 L 466 397 Z M 466 316 " clip-rule="nonzero"/></clipPath><clipPath id="b33385ab41"><path d="M 399.320312 278.871094 L 476.867188 239.527344 L 546.058594 375.90625 L 468.507812 415.246094 Z M 399.320312 278.871094 " clip-rule="nonzero"/></clipPath><clipPath id="23c9b8eaca"><path d="M 399.320312 278.871094 L 476.867188 239.527344 L 546.058594 375.90625 L 468.507812 415.246094 Z M 399.320312 278.871094 " clip-rule="nonzero"/></clipPath></defs><g clip-path="url(#cf6ee1ad18)"><g clip-path="url(#cdce9b1658)"><g clip-path="url(#4443b06aca)"><path fill="#c9b3ff" d="M 333.117188 514.261719 C 332.066406 514.515625 331.679688 515.015625 331.0625 514.128906 C 331.5625 512.675781 332.5 511.292969 333.042969 509.976562 C 337.546875 497.441406 340.019531 484.960938 339.585938 474.664062 C 339.074219 462.390625 326.585938 451.332031 315.46875 447.273438 C 311.792969 445.933594 307.308594 447.929688 308.136719 444.109375 C 308.960938 440.285156 312.203125 444.203125 316.101562 444.496094 C 317.664062 444.613281 319.214844 445.222656 320.820312 445.378906 C 328.800781 446.15625 336.917969 446.414062 344.191406 442.925781 C 349.574219 440.339844 360.324219 429.683594 363.132812 424.242188 C 363.15625 424.195312 362.8125 424.167969 362.839844 424.121094 C 363.8125 424.589844 363.820312 424.554688 364.769531 425.066406 C 364.75 425.109375 364.34375 424.796875 364.320312 424.839844 C 363.082031 427.347656 364.710938 430.617188 365.542969 433.644531 C 365.882812 434.882812 365.644531 436.175781 365.839844 437.328125 C 366.816406 443.097656 368.496094 449.539062 371.949219 454.390625 C 375.3125 459.117188 383.71875 465.222656 390.109375 466.046875 C 390.15625 466.046875 390.277344 465.339844 390.328125 465.339844 C 391.480469 465.378906 391.472656 465.160156 392.308594 465.953125 C 393.09375 466.695312 392.519531 466.578125 392.171875 467.597656 C 391.359375 467.664062 391 467.890625 390.097656 467.777344 C 380.855469 467.46875 372.257812 467.402344 363.535156 471.511719 C 357.300781 474.445312 351.917969 479.140625 348.101562 486.183594 C 346.261719 489.574219 344.175781 492.359375 342.4375 495.234375 C 339.511719 500.070312 336.757812 504.792969 334.386719 510.515625 C 333.894531 511.878906 333.660156 512.898438 333.117188 514.261719 Z M 321.59375 447.644531 C 331.316406 453.148438 340.9375 463.140625 341.417969 474.585938 C 341.722656 481.863281 340.28125 490.085938 338.144531 498.699219 C 338.996094 497.242188 340.585938 496.113281 341.472656 494.648438 C 343.195312 491.796875 344.121094 488.355469 345.929688 485.007812 C 349.972656 477.550781 355.757812 472.269531 362.417969 469.136719 C 369.152344 465.964844 375.648438 465.269531 382.449219 465.246094 C 377.332031 462.859375 372.75 459.085938 370.261719 455.589844 C 366.546875 450.367188 364.617188 443.710938 363.601562 437.707031 C 363.425781 436.664062 363.785156 435.402344 363.457031 434.21875 C 363.015625 432.605469 362.105469 430.835938 361.933594 429.117188 C 357.460938 435.121094 349.832031 442.84375 345.214844 445.0625 C 337.855469 448.59375 329.417969 448.390625 321.59375 447.644531 Z M 321.59375 447.644531 " fill-opacity="1" fill-rule="nonzero"/></g></g></g><g clip-path="url(#aa38684353)"><g clip-path="url(#9d2866e6a0)"><g clip-path="url(#4610ae1772)"><path fill="#c9b3ff" d="M 334.9375 668.753906 C 333.925781 669.125 333.121094 668.585938 332.984375 667.519531 C 334.359375 664.285156 336.996094 660.621094 339.71875 657.199219 C 343.257812 651.808594 346.808594 646.289062 349.003906 640.410156 C 353.238281 629.074219 353.992188 618.402344 352.03125 609.535156 C 350.230469 601.386719 346.355469 594.972656 342.109375 588.988281 C 338.175781 583.449219 334.027344 577.84375 332.03125 570.613281 C 331.761719 569.628906 330.855469 569.652344 331.601562 568.953125 C 332.34375 568.25 332.195312 569.363281 333.164062 569.695312 C 336.445312 570.816406 339.957031 571.777344 343.078125 573.351562 C 350.4375 577.0625 357.882812 581.214844 367.097656 578.988281 C 374.765625 577.136719 384.417969 574.667969 390.933594 571.753906 C 395.824219 569.566406 399.867188 565.453125 402.460938 561.0625 C 403.328125 560.421875 404.964844 561.429688 404.734375 562.484375 C 401.21875 568.910156 398.84375 577.207031 398.601562 583.671875 C 398.515625 585.902344 398.140625 588.140625 397.925781 590.308594 C 397.40625 595.484375 396.621094 600.433594 397.9375 605.019531 C 401.210938 616.378906 406.796875 625.3125 414.6875 631.175781 C 415.394531 631.988281 414.683594 632.160156 413.761719 632.722656 C 413.042969 632.199219 412.550781 631.269531 411.878906 630.757812 C 408.390625 628.113281 405.058594 626.671875 400.53125 626.070312 C 396.769531 625.570312 393.171875 625.851562 389.25 626.238281 C 387.671875 626.394531 386.0625 626.433594 384.464844 626.535156 C 375.675781 627.078125 370.425781 628.050781 362.933594 634.5625 C 356.796875 639.894531 351.113281 647.324219 347.078125 652.332031 C 346.445312 653.117188 345.328125 653.648438 344.574219 654.5625 C 343.566406 655.78125 342.570312 657.148438 341.5 658.488281 C 340.746094 659.636719 339.96875 660.761719 339.214844 661.894531 C 337.734375 664.117188 336.324219 666.542969 334.9375 668.753906 Z M 334.863281 572.167969 C 336.890625 578.058594 340.019531 582.871094 343.609375 587.921875 C 347.980469 594.085938 352.527344 600.429688 354.421875 609.007812 C 356.472656 618.28125 355.097656 629.320312 350.71875 641.050781 C 350.046875 642.859375 349.214844 644.464844 348.355469 646.210938 C 352.09375 641.820312 357.09375 637.242188 361.746094 633.195312 C 369.710938 626.273438 375.027344 624.785156 384.320312 624.207031 C 385.890625 624.109375 387.476562 624.175781 389.03125 624.023438 C 392.90625 623.640625 396.824219 623.242188 400.832031 623.777344 C 402.5625 624.007812 403.832031 624.269531 405.238281 624.863281 C 401.109375 619.617188 398.246094 613.035156 396.09375 605.550781 C 394.65625 600.566406 395.222656 595.242188 395.738281 590.089844 C 395.953125 587.957031 395.75 585.730469 395.832031 583.566406 C 396 579.082031 397.40625 573.789062 399.238281 568.757812 C 396.996094 570.78125 394.652344 572.660156 391.890625 573.894531 C 385.214844 576.882812 375.382812 579.28125 367.621094 581.15625 C 357.636719 583.570312 349.761719 579.265625 342.054688 575.382812 C 339.550781 574.121094 337.292969 573.15625 334.863281 572.167969 Z M 334.863281 572.167969 " fill-opacity="1" fill-rule="nonzero"/></g></g></g><g clip-path="url(#f92c8fe9cf)"><g clip-path="url(#368901eb4e)"><g clip-path="url(#d69f7553ac)"><path fill="#c9b3ff" d="M 446.640625 320.222656 C 446.21875 320.738281 446.214844 321.132812 445.578125 320.925781 C 445.28125 320.023438 445.222656 318.988281 444.996094 318.132812 C 442.507812 310.261719 439.039062 303.179688 434.960938 298.261719 C 430.097656 292.402344 419.785156 291.636719 412.777344 293.8125 C 410.460938 294.53125 409 297.199219 407.972656 295.003906 C 406.945312 292.808594 410.015625 293.523438 412.046875 292.203125 C 412.863281 291.675781 413.855469 291.394531 414.707031 290.867188 C 418.933594 288.253906 423.035156 285.332031 425.308594 280.878906 C 426.992188 277.582031 428.296875 268.289062 427.636719 264.550781 C 427.628906 264.519531 427.449219 264.636719 427.445312 264.601562 C 428.101562 264.46875 428.09375 264.449219 428.753906 264.34375 C 428.757812 264.371094 428.441406 264.371094 428.445312 264.398438 C 428.777344 266.101562 430.808594 267.101562 432.355469 268.285156 C 432.988281 268.765625 433.359375 269.492188 433.886719 269.988281 C 436.535156 272.464844 439.78125 275.011719 443.304688 276.109375 C 446.742188 277.175781 453.179688 277.03125 456.640625 275.035156 C 456.664062 275.019531 456.457031 274.625 456.484375 274.605469 C 457.066406 274.191406 456.980469 274.089844 457.691406 274.164062 C 458.355469 274.234375 458.027344 274.394531 458.238281 275.027344 C 457.863281 275.367188 457.769531 275.613281 457.285156 275.894531 C 452.613281 279.214844 448.34375 282.410156 445.585938 287.710938 C 443.613281 291.5 442.722656 295.839844 443.484375 300.746094 C 443.851562 303.105469 443.871094 305.265625 444.089844 307.335938 C 444.464844 310.820312 444.878906 314.183594 445.859375 317.894531 C 446.128906 318.753906 446.398438 319.34375 446.640625 320.222656 Z M 415.9375 291.695312 C 422.800781 290.757812 431.300781 292.070312 435.835938 297.535156 C 438.71875 301.011719 441.09375 305.605469 443.277344 310.660156 C 443.148438 309.617188 443.507812 308.464844 443.394531 307.410156 C 443.175781 305.355469 442.335938 303.3125 441.976562 300.980469 C 441.167969 295.785156 442.035156 291.007812 444.144531 286.960938 C 446.273438 282.867188 449.214844 280.085938 452.5625 277.519531 C 449.140625 278.265625 445.464844 278.125 442.925781 277.335938 C 439.128906 276.152344 435.679688 273.597656 432.925781 271.015625 C 432.445312 270.566406 432.148438 269.8125 431.542969 269.347656 C 430.71875 268.71875 429.605469 268.1875 428.875 267.40625 C 428.925781 272.046875 428.0625 278.722656 426.617188 281.546875 C 424.316406 286.054688 420.078125 289.125 415.9375 291.695312 Z M 415.9375 291.695312 " fill-opacity="1" fill-rule="nonzero"/></g></g></g><g clip-path="url(#4cab32f951)"><g clip-path="url(#b33385ab41)"><g clip-path="url(#23c9b8eaca)"><path fill="#c9b3ff" d="M 505.5625 395.726562 C 505.203125 396.289062 504.605469 396.328125 504.136719 395.851562 C 503.601562 393.742188 503.523438 390.941406 503.582031 388.234375 C 503.300781 384.246094 502.980469 380.191406 501.855469 376.464844 C 499.683594 369.285156 496.046875 363.738281 491.753906 360.101562 C 487.804688 356.761719 483.484375 355.050781 479.140625 353.695312 C 475.121094 352.441406 470.96875 351.238281 467.269531 348.421875 C 466.765625 348.035156 466.328125 348.386719 466.433594 347.761719 C 466.539062 347.136719 466.882812 347.742188 467.484375 347.539062 C 469.523438 346.863281 471.617188 346.015625 473.746094 345.621094 C 478.769531 344.6875 484.003906 343.9375 487.710938 339.378906 C 490.796875 335.585938 494.628906 330.746094 496.75 326.859375 C 498.339844 323.945312 498.789062 320.394531 498.417969 317.257812 C 498.605469 316.613281 499.792969 316.5 500.074219 317.105469 C 500.753906 321.59375 502.699219 326.578125 505.003906 329.855469 C 505.800781 330.988281 506.457031 332.234375 507.164062 333.382812 C 508.851562 336.132812 510.324219 338.867188 512.695312 340.632812 C 518.578125 345.007812 524.6875 347.316406 530.78125 347.242188 C 531.433594 347.378906 531.148438 347.730469 530.902344 348.355469 C 530.351562 348.367188 529.761719 348.09375 529.238281 348.09375 C 526.523438 348.097656 524.339844 348.636719 521.878906 350.042969 C 519.839844 351.210938 518.171875 352.699219 516.382812 354.363281 C 515.660156 355.03125 514.882812 355.65625 514.132812 356.304688 C 510.003906 359.875 507.777344 362.328125 506.527344 368.351562 C 505.503906 373.285156 505.492188 379.085938 505.382812 383.070312 C 505.367188 383.695312 505.015625 384.375 504.984375 385.109375 C 504.945312 386.089844 504.96875 387.136719 504.945312 388.199219 C 505.003906 389.050781 505.042969 389.898438 505.097656 390.738281 C 505.199219 392.390625 505.417969 394.117188 505.5625 395.726562 Z M 469.25 348.125 C 472.464844 350.265625 475.8125 351.464844 479.480469 352.609375 C 483.953125 354.003906 488.578125 355.425781 492.734375 358.945312 C 497.226562 362.746094 500.695312 368.707031 502.941406 376.136719 C 503.289062 377.28125 503.484375 378.386719 503.714844 379.570312 C 503.910156 376 504.652344 371.867188 505.429688 368.125 C 506.757812 361.71875 508.820312 358.988281 513.1875 355.214844 C 513.925781 354.574219 514.734375 354.011719 515.441406 353.351562 C 517.207031 351.710938 518.992188 350.039062 521.167969 348.796875 C 522.109375 348.261719 522.832031 347.914062 523.75 347.679688 C 519.742188 346.640625 515.859375 344.472656 511.984375 341.589844 C 509.40625 339.671875 507.683594 336.832031 506.003906 334.097656 C 505.308594 332.964844 504.375 331.945312 503.601562 330.84375 C 502 328.570312 500.703125 325.433594 499.71875 322.261719 C 499.371094 324.105469 498.921875 325.910156 498.023438 327.554688 C 495.851562 331.535156 491.90625 336.414062 488.78125 340.253906 C 484.765625 345.191406 479.265625 346.027344 474.003906 347.007812 C 472.296875 347.324219 470.820312 347.695312 469.25 348.125 Z M 469.25 348.125 " fill-opacity="1" fill-rule="nonzero"/></g></g></g></svg>